<svg xmlns="http://www.w3.org/2000/svg" viewBox="6 6 61 75"><g fill="#1f2a37"><path fill-rule="evenodd" d="M 13 17.957 L 13 23.949 28.384 24.225 L 43.767 24.500 27.885 46.500 C 14.116 65.574, 12.003 68.999, 12.002 72.250 L 12 76 37.055 76 L 62.110 76 61.805 71.250 L 61.500 66.500 45.164 66 L 28.828 65.500 44.973 43.280 C 60.502 21.909, 61.106 20.898, 60.809 16.780 L 60.500 12.500 36.750 12.232 L 13 11.964 13 17.957 M 125.356 17.697 C 123.937 20.888, 118.542 33.850, 113.368 46.500 C 108.194 59.150, 103.292 70.983, 102.475 72.796 L 100.989 76.092 107.713 75.796 L 114.437 75.500 116.469 70.226 L 118.500 64.951 132.890 65.226 L 147.281 65.500 149.274 70.750 L 151.268 76 157.701 76 C 163.379 76, 164.068 75.794, 163.564 74.250 C 163.250 73.287, 157.444 59, 150.662 42.500 L 138.332 12.500 133.134 12.197 L 127.937 11.893 125.356 17.697 M 207 44 L 207 76 229.625 76 L 252.250 76 251.625 72.875 C 251.281 71.156, 251 68.906, 251 67.875 C 251 66.120, 249.978 66, 235 66 L 219 66 219 39 L 219 12 213 12 L 207 12 207 44 M 297.750 12.565 C 297.337 12.987, 297 27.433, 297 44.667 L 297 76 303.500 76 L 310 76 310 65 L 310 54 320.250 53.990 C 328.975 53.982, 331.271 53.621, 335.686 51.566 C 339.276 49.894, 341.737 47.844, 343.686 44.899 C 346.112 41.233, 346.500 39.662, 346.500 33.505 C 346.500 27.385, 346.105 25.766, 343.745 22.196 C 341.968 19.507, 339.130 17.070, 335.745 15.326 C 330.825 12.790, 329.509 12.596, 314.500 12.209 C 305.700 11.982, 298.163 12.142, 297.750 12.565 M 395.525 42.750 C 388.506 59.663, 382.535 74.084, 382.256 74.799 C 381.864 75.802, 383.281 76.029, 388.490 75.799 L 395.230 75.500 397.185 70.250 L 399.140 65 413.436 65 L 427.732 65 429.723 70.250 L 431.714 75.500 438.361 75.796 L 445.007 76.092 442.925 70.796 C 440.236 63.953, 422.645 20.648, 420.565 15.750 C 419.008 12.083, 418.855 12, 413.630 12 L 408.287 12 395.525 42.750 M 486.667 12.667 C 486.300 13.033, 486 27.433, 486 44.667 L 486 76 492 76 L 498 76 498 55 C 498 43.450, 498.337 34.022, 498.750 34.049 C 499.163 34.076, 506.023 43.526, 513.996 55.049 L 528.492 76 534.746 76 L 541 76 541 44 L 541 12 535.020 12 L 529.039 12 528.770 33.601 L 528.500 55.202 516.057 37.351 C 509.213 27.533, 502.463 17.822, 501.057 15.771 C 498.624 12.223, 498.230 12.042, 492.917 12.021 C 489.846 12.010, 487.033 12.300, 486.667 12.667 M 310 33.500 L 310 43 318.550 43 C 328.412 43, 332.103 41.580, 333.972 37.067 C 335.527 33.313, 334.660 29.569, 331.505 26.414 C 329.290 24.199, 328.303 24, 319.545 24 L 310 24 310 33.500 M 128.006 40.659 C 125.690 46.622, 123.568 52.063, 123.290 52.750 C 122.908 53.698, 125.105 54, 132.393 54 C 137.677 54, 142 53.598, 142 53.106 C 142 51.757, 133.950 31.625, 133.024 30.659 C 132.581 30.197, 130.323 34.697, 128.006 40.659 M 408.631 41.437 C 406.084 47.802, 404 53.233, 404 53.505 C 404 53.777, 408.275 54, 413.500 54 C 418.725 54, 423.002 53.663, 423.004 53.250 C 423.011 52.134, 414.813 31.632, 413.980 30.681 C 413.586 30.231, 411.179 35.071, 408.631 41.437"/></g></svg>